<?xml version="1.0" encoding="utf-8"?>
<!-- Generator: Adobe Illustrator 23.0.4, SVG Export Plug-In . SVG Version: 6.00 Build 0)  -->
<svg version="1.1" id="图层_1" xmlns="http://www.w3.org/2000/svg" xmlns:xlink="http://www.w3.org/1999/xlink" x="0px" y="0px"
	 viewBox="0 0 14 14" style="enable-background:new 0 0 14 14;" xml:space="preserve">
<style type="text/css">
	.st0{fill:none;}
	.st1{fill:#30CB9B;}
</style>
<title>编组 6</title>
<desc>Created with Sketch.</desc>
<g id="页面-1">
	<g id="商户列表" transform="translate(-134.000000, -127.000000)">
		<g id="编组-6" transform="translate(132.000000, 126.000000)">
			<rect id="矩形" x="2" y="1" class="st0" width="14" height="14"/>
			<g id="安全" transform="translate(2.000000, 1.000000)">
				<path id="形状" class="st1" d="M7,12.57c-0.14,0-0.27-0.05-0.57-0.16c-1.24-0.48-2.28-1.25-3.02-2.23l0,0
					c-0.75-1-1.16-2.22-1.16-3.47v-3.8L7,1.01l4.75,1.9v3.8l0,0c0,1.25-0.4,2.47-1.16,3.47c-0.74,0.98-1.78,1.76-3.02,2.23
					C7.27,12.52,7.14,12.57,7,12.57L7,12.57z M4.58,7l1.79,1.8L9.9,5.24L9.28,4.62l-2.9,2.93L5.21,6.37L4.58,7z M7,1.03l4.73,1.89
					v3.79l0,0c0,1.25-0.4,2.46-1.16,3.46c-0.74,0.98-1.78,1.75-3.02,2.23C7.27,12.51,7.14,12.56,7,12.56s-0.27-0.05-0.56-0.16
					c-1.24-0.47-2.28-1.24-3.02-2.23l0,0c-0.75-1-1.16-2.21-1.16-3.46V2.92L7,1.03 M6.37,7.53L5.22,6.37L5.21,6.35L5.19,6.37
					l-0.6,0.61L4.57,7l0.02,0.02L6.35,8.8l0.02,0.02L6.39,8.8L9.9,5.26l0.02-0.02L9.9,5.23L9.29,4.61L9.28,4.6L9.26,4.61L6.37,7.53
					 M7,1L2.24,2.9v3.8c0,2.61,1.7,4.75,4.19,5.71c0.28,0.11,0.43,0.16,0.57,0.16c0.15,0,0.29-0.05,0.57-0.16
					c2.49-0.96,4.19-3.1,4.19-5.71V2.9L7,1z M6.37,7.56l2.9-2.93l0.61,0.61L6.37,8.78L4.6,7l0.61-0.61L6.37,7.56z"/>
			</g>
		</g>
	</g>
</g>
</svg>
