<?xml version="1.0" encoding="utf-8"?>
<!-- Generator: Adobe Illustrator 23.0.4, SVG Export Plug-In . SVG Version: 6.00 Build 0)  -->
<svg version="1.1" id="图层_1" xmlns="http://www.w3.org/2000/svg" xmlns:xlink="http://www.w3.org/1999/xlink" x="0px" y="0px"
	 viewBox="0 0 16 16" style="enable-background:new 0 0 16 16;" xml:space="preserve">
<style type="text/css">
	.st0{fill:none;}
	.st1{fill:#888888;}
</style>
<title>编组 4</title>
<desc>Created with Sketch.</desc>
<g id="页面-1">
	<g id="我的" transform="translate(-201.000000, -122.000000)">
		<g id="编组-4" transform="translate(197.000000, 119.000000)">
			<rect id="矩形" x="4" y="3" class="st0" width="16" height="16"/>
			<g id="电--话" transform="translate(4.000000, 3.000000)">
				<path id="路径" class="st1" d="M8.75,9.97C8.76,9.96,8.95,9.83,9,9.8c0.1-0.07,0.18-0.12,0.27-0.16
					c0.58-0.29,1.1-0.08,1.78,0.78c0.42,0.53,0.55,1,0.38,1.42c-0.12,0.31-0.35,0.53-0.77,0.8c-0.03,0.02-0.27,0.17-0.33,0.21
					c-0.97,0.64-3.18-0.83-4.78-3.35c-1.6-2.53-2.01-5.22-1.03-5.88l0.13-0.09l0.14-0.1c0.5-0.35,0.81-0.48,1.19-0.42
					c0.38,0.07,0.69,0.37,0.96,0.92c0.57,1.16,0.44,1.7-0.29,2.2C6.61,6.17,6.42,6.3,6.4,6.31C6.22,6.43,6.53,7.23,7.23,8.35
					C7.95,9.48,8.55,10.1,8.75,9.97L8.75,9.97z"/>
			</g>
		</g>
	</g>
</g>
</svg>
