<?xml version="1.0" encoding="utf-8"?>
<!-- Generator: Adobe Illustrator 23.0.4, SVG Export Plug-In . SVG Version: 6.00 Build 0)  -->
<svg version="1.1" id="图层_1" xmlns="http://www.w3.org/2000/svg" xmlns:xlink="http://www.w3.org/1999/xlink" x="0px" y="0px"
	 viewBox="0 0 44 44" style="enable-background:new 0 0 44 44;" xml:space="preserve">
<style type="text/css">
	.st0{fill-rule:evenodd;clip-rule:evenodd;fill:#EC8140;}
	.st1{fill-rule:evenodd;clip-rule:evenodd;fill:#FFFFFF;}
</style>
<g id="页面-1">
	<g id="编组-13">
		<polygon id="Fill-1" class="st0" points="0,44 44,44 44,0 0,0 		"/>
		<g id="编组" transform="translate(8.000000, 6.000000)">
			<path id="Fill-2" class="st1" d="M28.87,33.65L12.96,17.83l-3.61,3.59c-0.69,0.69-0.69,1.81,0,2.5l5.22,5.19
				c2.93,2.91,6.9,4.55,11.03,4.55H28.87z"/>
			<path id="Fill-4" class="st1" d="M4.75,18.94c-1.15,0-2.08-0.93-2.08-2.07c0-1.14,0.93-2.07,2.08-2.07
				c1.15,0,2.08,0.93,2.08,2.07C6.84,18.01,5.9,18.94,4.75,18.94L4.75,18.94z M25.25,0.14c-4.14,0-8.11,1.64-11.03,4.55l-7.24,7.2
				V0.14H0.1v16.19v17.33h6.88V23.52c0-1.25,0.5-2.45,1.39-3.34L28.52,0.14H25.25z"/>
		</g>
	</g>
</g>
</svg>
