<?xml version="1.0" encoding="utf-8"?>
<!-- Generator: Adobe Illustrator 23.0.4, SVG Export Plug-In . SVG Version: 6.00 Build 0)  -->
<svg version="1.1" id="图层_1" xmlns="http://www.w3.org/2000/svg" xmlns:xlink="http://www.w3.org/1999/xlink" x="0px" y="0px"
	 viewBox="0 0 16 16" style="enable-background:new 0 0 16 16;" xml:space="preserve">
<style type="text/css">
	.st0{fill:none;}
	.st1{fill:#888888;}
</style>
<title>编组 4</title>
<desc>Created with Sketch.</desc>
<g id="页面-1">
	<g id="商户主页" transform="translate(-20.000000, -207.000000)">
		<g id="编组-4" transform="translate(17.000000, 206.000000)">
			<rect id="矩形" x="3" y="1" class="st0" width="16" height="16"/>
			<g id="地址" transform="translate(3.000000, 1.000000)">
				<path id="形状" class="st1" d="M7.97,1L7.97,1C5.23,1.01,3.01,3.33,3,6.19c0,2.86,3.91,7.27,3.91,7.27
					c0.62,0.71,1.55,0.71,2.17,0c0,0,3.91-4.35,3.91-7.27c0-1.36-0.5-2.73-1.43-3.7C10.51,1.52,9.27,1,7.97,1L7.97,1z M7.97,8.4
					c-0.93,0-1.74-0.58-2.11-1.49C5.48,6,5.67,4.96,6.35,4.31C7.04,3.6,8.03,3.4,8.84,3.79C9.71,4.18,10.27,5.03,10.27,6v0
					c0,1.32-1.02,2.4-2.29,2.4C7.98,8.4,7.97,8.4,7.97,8.4L7.97,8.4z"/>
			</g>
		</g>
	</g>
</g>
</svg>
