<?xml version="1.0" encoding="utf-8"?>
<!-- Generator: Adobe Illustrator 23.0.4, SVG Export Plug-In . SVG Version: 6.00 Build 0)  -->
<svg version="1.1" id="图层_1" xmlns="http://www.w3.org/2000/svg" xmlns:xlink="http://www.w3.org/1999/xlink" x="0px" y="0px"
	 viewBox="0 0 22 22" style="enable-background:new 0 0 22 22;" xml:space="preserve">
<style type="text/css">
	.st0{fill:none;}
	.st1{fill:#4BCD6F;}
</style>
<title>编组 3</title>
<desc>Created with Sketch.</desc>
<g id="页面-1">
	<g id="商户主页" transform="translate(-341.000000, -205.000000)">
		<g id="编组-3" transform="translate(337.000000, 203.000000)">
			<rect id="矩形" x="4" y="2" class="st0" width="22" height="22"/>
			<g id="电--话" transform="translate(4.000000, 2.000000)">
				<path id="路径" class="st1" d="M12.86,14.55c0.03-0.02,0.38-0.25,0.48-0.31c0.19-0.12,0.34-0.21,0.5-0.28
					c1.09-0.52,2.05-0.15,3.32,1.4c0.79,0.96,1.02,1.81,0.72,2.56c-0.23,0.57-0.66,0.96-1.44,1.44c-0.05,0.03-0.5,0.3-0.61,0.38
					c-1.8,1.16-5.94-1.5-8.92-6.03C3.93,9.14,3.15,4.29,4.98,3.12l0.24-0.16l0.26-0.18C6.41,2.16,7,1.91,7.7,2.03
					C8.4,2.16,9,2.7,9.5,3.68c1.06,2.08,0.83,3.07-0.54,3.97c-0.1,0.07-0.45,0.29-0.48,0.31c-0.34,0.22,0.23,1.66,1.55,3.68
					C11.37,13.67,12.49,14.78,12.86,14.55L12.86,14.55z"/>
			</g>
		</g>
	</g>
</g>
</svg>
