<?xml version="1.0" encoding="utf-8"?>
<!-- Generator: Adobe Illustrator 23.0.4, SVG Export Plug-In . SVG Version: 6.00 Build 0)  -->
<svg version="1.1" id="图层_1" xmlns="http://www.w3.org/2000/svg" xmlns:xlink="http://www.w3.org/1999/xlink" x="0px" y="0px"
	 viewBox="0 0 26 26" style="enable-background:new 0 0 26 26;" xml:space="preserve">
<style type="text/css">
	.st0{fill:none;}
	.st1{fill:#979797;}
</style>
<title>编组 8</title>
<desc>Created with Sketch.</desc>
<g id="矩形备份">
	<rect class="st0" width="26" height="26"/>
</g>
<g id="编组-5" transform="translate(5.000000, 4.000000)">
	<g id="矩形">
		<path class="st1" d="M8,9C7.93,9,7.86,8.98,7.79,8.95C7.61,8.87,7.5,8.69,7.5,8.5v-9C7.5-0.78,7.72-1,8-1h5
			c0.28,0,0.5,0.22,0.5,0.5v9c0,0.2-0.11,0.37-0.29,0.45S12.82,9,12.68,8.88l-2.15-1.85l-2.2,1.85C8.23,8.96,8.12,9,8,9z M8.5,0
			v7.43L10.21,6c0.19-0.16,0.46-0.16,0.65,0l1.65,1.41V0H8.5z"/>
	</g>
	<g>
		<path class="st1" d="M14,19H0c-0.28,0-0.5-0.22-0.5-0.5v-19C-0.5-0.78-0.28-1,0-1h14c1.38,0,2.5,1.12,2.5,2.5v15
			C16.5,17.88,15.38,19,14,19z M0.5,18H14c0.83,0,1.5-0.67,1.5-1.5v-15C15.5,0.67,14.83,0,14,0H0.5V18z"/>
	</g>
</g>
</svg>
