<?xml version="1.0" encoding="utf-8"?>
<!-- Generator: Adobe Illustrator 23.0.4, SVG Export Plug-In . SVG Version: 6.00 Build 0)  -->
<svg version="1.1" id="图层_1" xmlns="http://www.w3.org/2000/svg" xmlns:xlink="http://www.w3.org/1999/xlink" x="0px" y="0px"
	 viewBox="0 0 26 26" style="enable-background:new 0 0 26 26;" xml:space="preserve">
<style type="text/css">
	.st0{fill:none;}
	.st1{fill:#888888;}
</style>
<title>编组 2</title>
<desc>Created with Sketch.</desc>
<rect id="矩形备份-2" class="st0" width="26" height="26"/>
<g id="路径备份-14">
	<path class="st1" d="M20.87,23H5.09c-0.32,0-0.65-0.17-0.86-0.46c-0.21-0.34-0.28-0.71-0.2-1.05c0.81-4.63,4.22-8.13,8.28-8.49
		c1.64,0,3.04,0.28,4.32,0.87c0.25,0.11,0.34,0.16,0.64,0.35l0.18,0.11c2.35,1.5,3.99,4.11,4.52,7.17c0.08,0.37,0,0.73-0.24,1.05
		C21.52,22.82,21.19,23,20.87,23z M12.35,14c-3.57,0.32-6.6,3.49-7.34,7.69c-0.02,0.11,0,0.21,0.05,0.29L5.09,22h15.78
		c0.13-0.15,0.14-0.21,0.12-0.31c-0.49-2.81-1.96-5.17-4.06-6.5l-0.2-0.12c-0.24-0.15-0.31-0.19-0.51-0.28
		C15.07,14.25,13.8,14,12.35,14z"/>
</g>
<g id="形状备份-6">
	<path class="st1" d="M13,13c-2.76,0-5-2.24-5-5s2.24-5,5-5s5,2.24,5,5S15.76,13,13,13z M13,4c-2.17,0-4,1.83-4,4s1.83,4,4,4
		c2.17,0,4-1.83,4-4S15.17,4,13,4z"/>
</g>
</svg>
