<?xml version="1.0" encoding="utf-8"?>
<!-- Generator: Adobe Illustrator 23.0.4, SVG Export Plug-In . SVG Version: 6.00 Build 0)  -->
<svg version="1.1" id="图层_1" xmlns="http://www.w3.org/2000/svg" xmlns:xlink="http://www.w3.org/1999/xlink" x="0px" y="0px"
	 viewBox="0 0 26 26" style="enable-background:new 0 0 26 26;" xml:space="preserve">
<style type="text/css">
	.st0{fill:none;}
	.st1{fill:#7B8FFF;}
</style>
<title>编组 7</title>
<desc>Created with Sketch.</desc>
<g id="矩形备份-5">
	<rect y="0" class="st0" width="26" height="26"/>
</g>
<g id="路径">
	<path class="st1" d="M14.1,3.4L14.1,3.4c-0.6-0.5-1.5-0.5-2.2,0l-8.7,8.3l0,0c-0.3,0.3-0.3,0.8,0,1.1c0.3,0.3,0.8,0.4,1.1,0.1
		l0.1-0.1v8.6l0,0c0,0.9,0.7,1.6,1.6,1.6l0,0h4.7v-4.8l0,0c0-0.6,0.5-1.1,1.1-1.1l0,0h2.2l0,0c0.6,0,1.1,0.5,1.1,1.1l0,0V23H20l0,0
		c0.9,0,1.6-0.7,1.6-1.6l0,0v-8.5c0.4,0.3,0.9,0.3,1.2,0l0,0c0.3-0.3,0.3-0.8-0.1-1.1l0,0L14.1,3.4L14.1,3.4z"/>
	<path class="st1" d="M20,23.5h-5.3v-5.3c0-0.4-0.3-0.6-0.6-0.6h-2.2c-0.2,0-0.3,0.1-0.4,0.2s-0.2,0.3-0.2,0.5v5.3H6.1
		c-0.6,0-1.1-0.2-1.5-0.6S4,22,4,21.4v-7.8c-0.4,0.1-0.8-0.1-1.1-0.4c-0.2-0.3-0.4-0.6-0.3-0.9c0-0.4,0.2-0.7,0.4-0.9l8.7-8.3
		c0.8-0.7,2-0.7,2.8,0l0,0l8.6,8.3c0.5,0.5,0.6,1.3,0.1,1.8c-0.2,0.3-0.5,0.4-0.9,0.4c0,0-0.1,0-0.1,0v7.8
		C22.1,22.6,21.2,23.5,20,23.5z M15.7,22.5H20c0.6,0,1.1-0.5,1.1-1.1v-9.7l0.8,0.8c0.1,0.1,0.2,0.1,0.3,0.1c0,0,0.1,0,0.2-0.1
		c0.1-0.1,0.1-0.3,0-0.4l-8.6-8.3c-0.4-0.4-1.1-0.4-1.5,0l-8.7,8.3c-0.1,0.1-0.1,0.1-0.1,0.2s0,0.2,0.1,0.2c0.1,0.1,0.3,0.1,0.4,0
		l1-0.9v9.8c0,0.3,0.1,0.6,0.3,0.8c0.2,0.2,0.5,0.3,0.8,0.3h4.2v-4.3c0-0.4,0.2-0.9,0.5-1.1c0.3-0.3,0.7-0.5,1.1-0.5h2.2
		c0.9,0,1.6,0.7,1.6,1.6V22.5z"/>
</g>
</svg>
