<?xml version="1.0" encoding="utf-8"?>
<!-- Generator: Adobe Illustrator 23.0.4, SVG Export Plug-In . SVG Version: 6.00 Build 0)  -->
<svg version="1.1" id="图层_1" xmlns="http://www.w3.org/2000/svg" xmlns:xlink="http://www.w3.org/1999/xlink" x="0px" y="0px"
	 viewBox="0 0 26 26" style="enable-background:new 0 0 26 26;" xml:space="preserve">
<style type="text/css">
	.st0{fill:none;}
	.st1{fill:#EC8140;}
</style>
<title>编组 2</title>
<desc>Created with Sketch.</desc>
<rect id="矩形备份" class="st0" width="26" height="26"/>
<path id="形状" class="st1" d="M4,15.15C4.08,20,8.06,23.92,13,24c5.05-0.08,9.08-4.18,9-9.15C21.92,10,17.94,6.08,13,6
	C7.95,6.08,3.92,10.18,4,15.15z M18.42,12.26l-5.58,5.1l-4.79-3.51l0,0C7.77,13.66,7.69,13.28,7.89,13
	c0.01-0.02,0.03-0.04,0.04-0.05l0,0c0.2-0.28,0.58-0.35,0.87-0.16c0.02,0.01,0.03,0.02,0.05,0.04l3.92,2.9l4.71-4.37l0,0
	c0.27-0.25,0.7-0.24,0.95,0.03l0.01,0.01C18.67,11.61,18.67,12.02,18.42,12.26L18.42,12.26z M15.33,4.01
	c0.62-0.98,1.96-1.31,2.96-0.69l2.46,1.47c1,0.61,1.33,1.92,0.71,2.9L21.08,8.3l0,0c-1.59-1.87-3.81-3.11-6.25-3.51L15.33,4.01
	L15.33,4.01z M5.21,4.82l2.46-1.47l0,0c1-0.61,2.31-0.32,2.94,0.66c0.01,0.01,0.01,0.02,0.02,0.03l0.5,0.78l0,0
	C8.69,5.23,6.47,6.47,4.88,8.34L4.5,7.72C3.88,6.74,4.21,5.43,5.21,4.82L5.21,4.82z"/>
</svg>
