<?xml version="1.0" encoding="utf-8"?>
<!-- Generator: Adobe Illustrator 23.0.4, SVG Export Plug-In . SVG Version: 6.00 Build 0)  -->
<svg version="1.1" id="图层_1" xmlns="http://www.w3.org/2000/svg" xmlns:xlink="http://www.w3.org/1999/xlink" x="0px" y="0px"
	 viewBox="0 0 26 26" style="enable-background:new 0 0 26 26;" xml:space="preserve">
<style type="text/css">
	.st0{fill:none;}
	.st1{fill:#888888;}
	.st2{fill-rule:evenodd;clip-rule:evenodd;fill:#888888;}
</style>
<title>编组 8</title>
<desc>Created with Sketch.</desc>
<g id="页面-1">
	<g id="iPhone-8备份-16" transform="translate(-225.000000, -628.000000)">
		<g id="编组-8" transform="translate(221.000000, 625.000000)">
			<g id="矩形备份-5">
				<rect x="4" y="3" class="st0" width="26" height="26"/>
			</g>
			<g id="编组-9" transform="translate(5.000000, 4.000000)">
				<g id="矩形">
					<path class="st1" d="M20,22.5H4c-0.28,0-0.5-0.22-0.5-0.5V3c0-0.28,0.22-0.5,0.5-0.5h16c0.28,0,0.5,0.22,0.5,0.5v19
						C20.5,22.28,20.28,22.5,20,22.5z M4.5,21.5h15v-18h-15V21.5z"/>
				</g>
				<g id="编组-6" transform="translate(3.200000, 6.000000)">
					<g>
						<path class="st2" d="M4.5,3h8.6c0.28,0,0.5,0.22,0.5,0.5l0,0c0,0.28-0.22,0.5-0.5,0.5H4.5C4.22,4,4,3.78,4,3.5l0,0
							C4,3.22,4.22,3,4.5,3z"/>
					</g>
					<g id="矩形备份">
						<path class="st2" d="M4.5,6h8.6c0.28,0,0.5,0.22,0.5,0.5l0,0c0,0.28-0.22,0.5-0.5,0.5H4.5C4.22,7,4,6.78,4,6.5l0,0
							C4,6.22,4.22,6,4.5,6z"/>
					</g>
					<g id="矩形备份-2">
						<path class="st2" d="M4.5,9h8.6c0.28,0,0.5,0.22,0.5,0.5l0,0c0,0.28-0.22,0.5-0.5,0.5H4.5C4.22,10,4,9.78,4,9.5l0,0
							C4,9.22,4.22,9,4.5,9z"/>
					</g>
				</g>
			</g>
		</g>
	</g>
</g>
</svg>
