<?xml version="1.0" encoding="utf-8"?>
<!-- Generator: Adobe Illustrator 23.0.4, SVG Export Plug-In . SVG Version: 6.00 Build 0)  -->
<svg version="1.1" id="图层_1" xmlns="http://www.w3.org/2000/svg" xmlns:xlink="http://www.w3.org/1999/xlink" x="0px" y="0px"
	 viewBox="0 0 26 26" style="enable-background:new 0 0 26 26;" xml:space="preserve">
<style type="text/css">
	.st0{fill:none;}
	.st1{fill-rule:evenodd;clip-rule:evenodd;fill:#7B8FFF;}
	.st2{fill:#7B8FFF;}
	.st3{fill-rule:evenodd;clip-rule:evenodd;fill:#FFFFFF;}
</style>
<title>编组 5</title>
<desc>Created with Sketch.</desc>
<g id="矩形备份-5">
	<rect y="0" class="st0" width="26" height="26"/>
</g>
<g id="矩形">
	<path class="st1" d="M5,3.5h14c1.1,0,2,0.9,2,2v15c0,1.1-0.9,2-2,2H5l0,0V3.5z"/>
	<path class="st2" d="M19,23H5c-0.3,0-0.5-0.2-0.5-0.5v-19C4.5,3.2,4.7,3,5,3h14c1.4,0,2.5,1.1,2.5,2.5v15C21.5,21.9,20.4,23,19,23z
		 M5.5,22H19c0.8,0,1.5-0.7,1.5-1.5v-15C20.5,4.7,19.8,4,19,4H5.5V22z"/>
</g>
<g>
	<polygon class="st3" points="13,3 18,3 18,12.5 15.5,10.5 13,12.5 	"/>
</g>
</svg>
