<?xml version="1.0" encoding="utf-8"?>
<!-- Generator: Adobe Illustrator 23.0.4, SVG Export Plug-In . SVG Version: 6.00 Build 0)  -->
<svg version="1.1" id="图层_1" xmlns="http://www.w3.org/2000/svg" xmlns:xlink="http://www.w3.org/1999/xlink" x="0px" y="0px"
	 viewBox="0 0 26 26" style="enable-background:new 0 0 26 26;" xml:space="preserve">
<style type="text/css">
	.st0{fill:none;}
	.st1{fill:#7B8FFF;}
</style>
<title>编组 10</title>
<desc>Created with Sketch.</desc>
<g id="页面-1">
	<g id="我的" transform="translate(-320.000000, -628.000000)">
		<g id="编组-10" transform="translate(316.000000, 625.000000)">
			<g id="矩形备份-5">
				<rect x="4" y="3" class="st0" width="26" height="26"/>
			</g>
			<g id="编组-3" transform="translate(4.000000, 3.000000)">
				<g id="路径备份-9">
					<path class="st1" d="M5.1,22.5h15.8c0.2,0,0.3-0.1,0.5-0.3c0.1-0.2,0.2-0.4,0.1-0.7c-0.5-2.9-2.1-5.4-4.3-6.8
						c-0.1,0-0.1,0-0.1-0.1c0,0,0,0-0.1-0.1c-0.3-0.2-0.4-0.2-0.6-0.3c-1.3-0.6-2.6-0.8-4.1-0.8c-3.8,0.3-7.1,3.6-7.8,8.1
						c-0.1,0.2,0,0.5,0.1,0.6C4.8,22.4,4.9,22.5,5.1,22.5z"/>
					<path class="st1" d="M20.9,23H5.1c-0.3,0-0.7-0.2-0.9-0.5C4,22.2,4,21.8,4,21.5c0.8-4.6,4.2-8.1,8.3-8.5c1.6,0,3,0.3,4.3,0.9
						c0.2,0.1,0.3,0.2,0.6,0.4l0.2,0.1c2.4,1.5,4,4.1,4.5,7.2c0.1,0.4,0,0.7-0.2,1C21.5,22.8,21.2,23,20.9,23z M12.4,14
						c-3.6,0.3-6.6,3.5-7.3,7.7c0,0.1,0,0.2,0.1,0.3l0,0h15.8c0.1-0.1,0.1-0.2,0.1-0.3c-0.5-2.8-2-5.2-4.1-6.5l-0.2-0.1
						c-0.2-0.1-0.3-0.2-0.5-0.3C15.1,14.3,13.8,14,12.4,14z"/>
				</g>
				<g id="形状备份-5">
					<path class="st1" d="M13,12.5c2.5,0,4.5-2,4.5-4.5s-2-4.5-4.5-4.5S8.5,5.5,8.5,8S10.5,12.5,13,12.5z"/>
					<path class="st1" d="M13,13c-2.8,0-5-2.2-5-5s2.2-5,5-5s5,2.2,5,5S15.8,13,13,13z M13,4c-2.2,0-4,1.8-4,4s1.8,4,4,4s4-1.8,4-4
						S15.2,4,13,4z"/>
				</g>
			</g>
		</g>
	</g>
</g>
</svg>
