<?xml version="1.0" encoding="utf-8"?>
<!-- Generator: Adobe Illustrator 23.0.4, SVG Export Plug-In . SVG Version: 6.00 Build 0)  -->
<svg version="1.1" id="图层_1" xmlns="http://www.w3.org/2000/svg" xmlns:xlink="http://www.w3.org/1999/xlink" x="0px" y="0px"
	 viewBox="0 0 26 26" style="enable-background:new 0 0 26 26;" xml:space="preserve">
<style type="text/css">
	.st0{fill:none;}
	.st1{fill:#888888;}
</style>
<title>编组 2</title>
<desc>Created with Sketch.</desc>
<g id="页面-1">
	<g id="编组-2" transform="translate(50.000000, 625.000000)">
		<rect id="矩形" x="-50" y="-625" class="st0" width="26" height="26"/>
		<g id="首页-选中备份-6" transform="translate(3.000000, 3.000000)">
			<g id="路径">
				<path class="st1" d="M-33-604.5h-5.3v-5.3c0-0.3-0.3-0.6-0.6-0.6h-2.2c-0.2,0-0.3,0.1-0.4,0.2c-0.1,0.1-0.2,0.3-0.2,0.4v5.3
					h-5.2c-0.6,0-1.1-0.2-1.5-0.6s-0.6-0.9-0.6-1.5v-7.8c-0.4,0.1-0.8-0.1-1.1-0.4c-0.2-0.3-0.4-0.6-0.3-0.9c0-0.3,0.2-0.7,0.4-0.9
					l8.7-8.3c0.8-0.7,2-0.7,2.8,0l0,0l8.6,8.3c0.5,0.5,0.6,1.3,0.1,1.8c-0.2,0.3-0.5,0.4-0.9,0.4c0,0-0.1,0-0.1,0v7.8
					C-30.9-605.4-31.8-604.5-33-604.5z M-37.3-605.5h4.3c0.6,0,1.1-0.5,1.1-1.1v-9.7l0.8,0.8c0.1,0.1,0.2,0.1,0.3,0.1
					c0.1,0,0.1,0,0.2-0.1c0.1-0.1,0.1-0.3,0-0.4l-8.6-8.3c-0.4-0.4-1.1-0.4-1.5,0l-8.7,8.3c-0.1,0.1-0.1,0.1-0.1,0.2s0,0.2,0.1,0.2
					c0.1,0.1,0.3,0.1,0.4,0l1-0.9v9.8c0,0.3,0.1,0.6,0.3,0.8c0.2,0.2,0.5,0.3,0.8,0.3h4.2v-4.3c0-0.4,0.2-0.8,0.5-1.2
					c0.3-0.3,0.7-0.5,1.2-0.5h2.2c0.9,0,1.6,0.7,1.6,1.6V-605.5z"/>
			</g>
		</g>
	</g>
</g>
</svg>
