<?xml version="1.0" encoding="utf-8"?>
<!-- Generator: Adobe Illustrator 23.0.4, SVG Export Plug-In . SVG Version: 6.00 Build 0)  -->
<svg version="1.1" id="图层_1" xmlns="http://www.w3.org/2000/svg" xmlns:xlink="http://www.w3.org/1999/xlink" x="0px" y="0px"
	 viewBox="0 0 26 26" style="enable-background:new 0 0 26 26;" xml:space="preserve">
<style type="text/css">
	.st0{fill:none;}
	.st1{fill:#EC8140;}
</style>
<title>编组 5</title>
<desc>Created with Sketch.</desc>
<g id="页面-1">
	<g id="商户列表" transform="translate(-53.000000, -628.000000)">
		<g id="编组-5" transform="translate(50.000000, 625.000000)">
			<rect id="矩形备份" x="3" y="3" class="st0" width="26" height="26"/>
			<g id="首页-选中备份-4" transform="translate(3.000000, 3.000000)">
				<path id="路径" class="st1" d="M14.13,3.42L14.13,3.42c-0.61-0.55-1.54-0.55-2.16,0l-8.72,8.27l0,0
					c-0.33,0.3-0.35,0.81-0.05,1.14c0.3,0.32,0.8,0.35,1.12,0.06l0.14-0.13v8.64l0,0c0,0.89,0.72,1.61,1.61,1.61c0,0,0,0,0,0h4.68
					v-4.84v0c0-0.63,0.51-1.13,1.13-1.13c0,0,0,0,0,0h2.2l0,0c0.63,0,1.13,0.51,1.13,1.13c0,0,0,0,0,0V23h4.79l0,0
					c0.89,0,1.61-0.72,1.61-1.61c0,0,0,0,0,0v-8.53c0.36,0.32,0.86,0.3,1.16-0.03l0,0c0.3-0.33,0.27-0.84-0.06-1.14c0,0,0,0,0,0
					L14.13,3.42L14.13,3.42z"/>
			</g>
		</g>
	</g>
</g>
</svg>
