<?xml version="1.0" encoding="utf-8"?>
<!-- Generator: Adobe Illustrator 23.0.4, SVG Export Plug-In . SVG Version: 6.00 Build 0)  -->
<svg version="1.1" id="图层_1" xmlns="http://www.w3.org/2000/svg" xmlns:xlink="http://www.w3.org/1999/xlink" x="0px" y="0px"
	 viewBox="0 0 26 26" style="enable-background:new 0 0 26 26;" xml:space="preserve">
<style type="text/css">
	.st0{fill:none;}
	.st1{fill:#888888;}
</style>
<title>编组 3</title>
<desc>Created with Sketch.</desc>
<rect id="矩形备份-2" y="0" class="st0" width="26" height="26"/>
<g id="路径备份-4">
	<path class="st1" d="M13,24c-4.97-0.08-8.92-3.97-9-8.85v0c-0.04-2.4,0.88-4.68,2.58-6.41C8.28,7.01,10.56,6.04,13,6
		c4.97,0.08,8.92,3.97,9,8.85c0.04,2.41-0.88,4.68-2.58,6.41C17.72,22.99,15.44,23.96,13,24z M5,15.13c0.07,4.34,3.59,7.8,8,7.87
		c2.16-0.04,4.2-0.9,5.71-2.44c1.51-1.54,2.32-3.56,2.29-5.69c-0.07-4.34-3.59-7.8-8-7.87c-2.16,0.03-4.2,0.9-5.71,2.44
		C5.78,10.98,4.97,13,5,15.13L5,15.13z"/>
</g>
<path id="路径备份-5" class="st1" d="M18.42,12.26l-5.58,5.1l-4.79-3.51l0,0c-0.28-0.19-0.36-0.57-0.16-0.85
	c0.01-0.02,0.03-0.04,0.04-0.05l0,0c0.2-0.28,0.58-0.35,0.87-0.16c0.02,0.01,0.03,0.02,0.05,0.04l3.92,2.9l4.71-4.37h0
	c0.27-0.25,0.7-0.24,0.95,0.03c0,0,0.01,0.01,0.01,0.01C18.67,11.61,18.67,12.02,18.42,12.26L18.42,12.26z"/>
<path id="路径备份-6" class="st1" d="M15.33,4.01c0.62-0.98,1.96-1.31,2.96-0.69l2.46,1.47c1,0.61,1.33,1.92,0.71,2.9
	l-0.38,0.61l0,0c-1.59-1.87-3.81-3.11-6.25-3.51L15.33,4.01L15.33,4.01z"/>
<path id="路径备份-7" class="st1" d="M5.21,4.82l2.46-1.47l0,0c1-0.61,2.31-0.32,2.94,0.66c0.01,0.01,0.01,0.02,0.02,0.03
	l0.5,0.78l0,0C8.69,5.23,6.47,6.47,4.88,8.34L4.5,7.72C3.88,6.74,4.21,5.43,5.21,4.82L5.21,4.82z"/>
</svg>
