<?xml version="1.0" encoding="utf-8"?>
<!-- Generator: Adobe Illustrator 23.0.4, SVG Export Plug-In . SVG Version: 6.00 Build 0)  -->
<svg version="1.1" id="图层_1" xmlns="http://www.w3.org/2000/svg" xmlns:xlink="http://www.w3.org/1999/xlink" x="0px" y="0px"
	 viewBox="0 0 26 26" style="enable-background:new 0 0 26 26;" xml:space="preserve">
<style type="text/css">
	.st0{fill:none;}
	.st1{fill:#EC8140;}
</style>
<title>编组 3</title>
<desc>Created with Sketch.</desc>
<rect id="矩形备份-4" x="0" class="st0" width="26" height="26"/>
<path id="路径备份-8" class="st1" d="M20.87,23H5.09c-0.33,0-0.65-0.18-0.86-0.46c-0.2-0.32-0.29-0.68-0.2-1.05
	c0.82-4.66,4.2-8.13,8.28-8.49c1.37,0,2.84,0.19,4.32,0.87c0.43,0.19,0.57,0.32,0.82,0.46c2.36,1.51,4,4.11,4.53,7.17
	c0.08,0.37,0,0.73-0.24,1.05C21.52,22.82,21.19,23,20.87,23L20.87,23z"/>
<path id="形状备份-4" class="st1" d="M13,13c-2.74,0-5-2.26-5-5c0-2.74,2.26-5,5-5c2.74,0,5,2.26,5,5C18,10.74,15.74,13,13,13z"
	/>
</svg>
